name X:\Health\ResearchProjects\ASalo\Sprinting 2016\NHaralabidis\Running_implicit_muscleDriven\Running_implicit_muscleDriven\Study2\ExperimentalData\IK_Splined\twoSteps_IK_BSplines_100_meshInts_study2_p02_s_01_lowIK.mot
datacolumns 38
datarows 6
range 0.55000000 0.55540564
endheader
                time	         pelvis_tilt	         pelvis_list	     pelvis_rotation	           pelvis_tx	           pelvis_ty	           pelvis_tz	       hip_flexion_r	     hip_adduction_r	      hip_rotation_r	        knee_angle_r	       ankle_angle_r	    subtalar_angle_r	         mtp_angle_r	       hip_flexion_l	     hip_adduction_l	      hip_rotation_l	        knee_angle_l	       ankle_angle_l	    subtalar_angle_l	         mtp_angle_l	    lumbar_extension	      lumbar_bending	     lumbar_rotation	          arm_flex_r	           arm_add_r	           arm_rot_r	        elbow_flex_r	           pro_sup_r	        wrist_flex_r	         wrist_dev_r	          arm_flex_l	           arm_add_l	           arm_rot_l	        elbow_flex_l	           pro_sup_l	        wrist_flex_l	         wrist_dev_l	
          0.55000000	        -22.88007493	         11.87441066	         -6.38445999	         -0.26712155	          0.87520028	          0.35130560	        -11.17032176	        -15.35682660	         -0.38154302	        -28.06831313	        -42.52192692	        -16.29792605	         -6.12214457	         86.94686310	          0.97056263	        -10.85433749	        -84.41106597	          6.56763229	        -14.23593153	          7.18608212	        -15.71912422	        -23.38245473	         -7.50356652	         52.33569163	        -14.11448991	         24.09152221	        142.27812061	         60.12808114	        -18.82069320	         10.33788300	        -74.58470633	          4.40992752	        -44.97636435	         53.19073181	         63.41283547	          1.42135306	         25.40239979	
          0.55072564	        -22.84459007	         11.74291143	         -6.23911298	         -0.26306803	          0.87570897	          0.35140520	        -11.09249062	        -15.12603180	         -0.55767995	        -28.56932302	        -42.44127008	        -16.36778165	         -6.13385160	         86.69248922	          1.00545228	        -10.79182649	        -84.10344310	          6.56680994	        -14.19992588	          7.18632879	        -15.86658372	        -23.30988973	         -7.58331936	         51.66657123	        -14.32572497	         23.95109229	        142.44006370	         60.07524873	        -18.86057437	         10.35650612	        -74.28609758	          4.35364604	        -44.97375230	         53.28193818	         63.42359003	          1.43260634	         25.38942927	
          0.55301836	        -22.71491529	         11.33057441	         -5.78542167	         -0.25025263	          0.87732969	          0.35172978	        -10.83190175	        -14.40573699	         -1.10393402	        -30.18992095	        -42.15919984	        -16.53672352	         -6.12425112	         85.85180572	          1.11649825	        -10.59688738	        -83.14377627	          6.55485053	        -14.08265064	          7.19290201	        -16.36354474	        -23.07994844	         -7.80579102	         49.49054855	        -14.98628627	         23.42340998	        142.91118847	         59.90644983	        -18.99687229	         10.42366143	        -73.31497186	          4.12736033	        -44.93428601	         53.59791174	         63.47663700	          1.46874765	         25.34602363	
          0.55468000	        -22.59126043	         11.03705385	         -5.46598448	         -0.24095134	          0.87852707	          0.35198170	        -10.61824002	        -13.89878724	         -1.48247675	        -31.42800860	        -41.90875287	        -16.57165984	         -6.03855039	         85.18004768	          1.19834545	        -10.45995012	        -82.46904421	          6.53036156	        -13.99172017	          7.20745829	        -16.77619171	        -22.91217487	         -7.91714261	         47.80891011	        -15.45343840	         22.89903633	        143.18410031	         59.78095302	        -19.11304442	         10.48638336	        -72.56443169	          3.88145879	        -44.85292867	         53.87389521	         63.54730805	          1.49593046	         25.31046860	
          0.55468000	        -22.59126043	         11.03705385	         -5.46598448	         -0.24095134	          0.87852707	          0.35198170	        -10.61824002	        -13.89878724	         -1.48247675	        -31.42800860	        -41.90875287	        -16.57165984	         -6.03855039	         85.18004768	          1.19834545	        -10.45995012	        -82.46904421	          6.53036156	        -13.99172017	          7.20745829	        -16.77619171	        -22.91217487	         -7.91714261	         47.80891011	        -15.45343840	         22.89903633	        143.18410031	         59.78095302	        -19.11304442	         10.48638336	        -72.56443169	          3.88145879	        -44.85292867	         53.87389521	         63.54730805	          1.49593046	         25.31046860	
          0.55540564	        -22.53726027	         10.90887322	         -5.32648605	         -0.23688946	          0.87904996	          0.35209172	        -10.52493380	        -13.67740194	         -1.64778662	        -31.96868232	        -41.79938251	        -16.58691656	         -6.00112482	         84.88669049	          1.23408817	        -10.40014952	        -82.17438826	          6.51966721	        -13.95201077	          7.21381502	        -16.95639493	        -22.83890803	         -7.96576992	         47.07453745	        -15.65744406	         22.67004200	        143.30328109	         59.72614849	        -19.16377687	         10.51377407	        -72.23667028	          3.77407342	        -44.81739987	         53.99441738	         63.57817015	          1.50780121	         25.29494170	
